<?xml version="1.0" encoding="UTF-8"?><svg id="Layer_1" xmlns="http://www.w3.org/2000/svg" width="164.98" height="112.16" viewBox="0 0 164.98 112.16"><path d="M152.93,24.12c-6.66,0-12.06,5.4-12.06,12.06,0,2.07.52,4.02,1.44,5.73l-33.77,13.33-22.45-32.16c4.22-1.88,7.16-6.1,7.16-11.02,0-6.66-5.4-12.06-12.06-12.06s-12.06,5.4-12.06,12.06c0,4.89,2.91,9.1,7.09,10.99l-21.16,31.44-32.36-12.65c.9-1.69,1.41-3.62,1.41-5.66,0-6.66-5.4-12.06-12.06-12.06S0,29.52,0,36.18s5.4,12.06,12.06,12.06c2.18,0,4.22-.58,5.99-1.59l17.71,37.56h92.47l18.65-37.6c1.78,1.04,3.85,1.63,6.06,1.63,6.66,0,12.06-5.4,12.06-12.06s-5.4-12.06-12.06-12.06Z" fill="#41b8ea" stroke-width="0"/><rect x="34.64" y="96.75" width="93.21" height="15.41" fill="#41b8ea" stroke-width="0"/></svg>